<svg xmlns="http://www.w3.org/2000/svg" width="512" height="512" viewBox="0 0 512 512">
  <rect width="512" height="512" rx="80" fill="#0a0a0a"/>
  <rect x="40" y="40" width="432" height="432" rx="60" fill="#1c1c1e" stroke="#2c2c2e" stroke-width="4"/>
  <rect x="100" y="100" width="64" height="64" rx="8" fill="#5b9cf6"/>
  <rect x="180" y="100" width="20" height="20" rx="3" fill="#5b9cf6"/>
  <rect x="216" y="100" width="20" height="20" rx="3" fill="#5b9cf6"/>
  <rect x="252" y="100" width="20" height="20" rx="3" fill="#5b9cf6"/>
  <rect x="288" y="100" width="20" height="20" rx="3" fill="#5b9cf6"/>
  <rect x="348" y="100" width="64" height="64" rx="8" fill="#5b9cf6"/>
  <rect x="100" y="180" width="20" height="20" rx="3" fill="#5b9cf6"/>
  <rect x="136" y="180" width="20" height="20" rx="3" fill="#5b9cf6"/>
  <rect x="180" y="180" width="20" height="20" rx="3" fill="#5b9cf6"/>
  <rect x="216" y="180" width="20" height="20" rx="3" fill="#5b9cf6"/>
  <rect x="252" y="180" width="20" height="20" rx="3" fill="#5b9cf6"/>
  <rect x="288" y="180" width="20" height="20" rx="3" fill="#5b9cf6"/>
  <rect x="348" y="180" width="20" height="20" rx="3" fill="#5b9cf6"/>
  <rect x="100" y="216" width="20" height="20" rx="3" fill="#5b9cf6"/>
  <rect x="136" y="216" width="20" height="20" rx="3" fill="#5b9cf6"/>
  <rect x="180" y="216" width="20" height="20" rx="3" fill="#5b9cf6"/>
  <rect x="216" y="216" width="20" height="20" rx="3" fill="#5b9cf6"/>
  <rect x="252" y="216" width="20" height="20" rx="3" fill="#5b9cf6"/>
  <rect x="288" y="216" width="20" height="20" rx="3" fill="#5b9cf6"/>
  <rect x="348" y="216" width="20" height="20" rx="3" fill="#5b9cf6"/>
  <rect x="100" y="252" width="20" height="20" rx="3" fill="#5b9cf6"/>
  <rect x="136" y="252" width="20" height="20" rx="3" fill="#5b9cf6"/>
  <rect x="180" y="252" width="20" height="20" rx="3" fill="#5b9cf6"/>
  <rect x="216" y="252" width="20" height="20" rx="3" fill="#5b9cf6"/>
  <rect x="252" y="252" width="20" height="20" rx="3" fill="#5b9cf6"/>
  <rect x="288" y="252" width="20" height="20" rx="3" fill="#5b9cf6"/>
  <rect x="348" y="252" width="20" height="20" rx="3" fill="#5b9cf6"/>
  <rect x="100" y="288" width="20" height="20" rx="3" fill="#5b9cf6"/>
  <rect x="136" y="288" width="20" height="20" rx="3" fill="#5b9cf6"/>
  <rect x="180" y="288" width="20" height="20" rx="3" fill="#5b9cf6"/>
  <rect x="216" y="288" width="20" height="20" rx="3" fill="#5b9cf6"/>
  <rect x="252" y="288" width="20" height="20" rx="3" fill="#5b9cf6"/>
  <rect x="288" y="288" width="20" height="20" rx="3" fill="#5b9cf6"/>
  <rect x="348" y="288" width="20" height="20" rx="3" fill="#5b9cf6"/>
  <rect x="100" y="348" width="64" height="64" rx="8" fill="#5b9cf6"/>
  <rect x="180" y="348" width="20" height="20" rx="3" fill="#5b9cf6"/>
  <rect x="216" y="348" width="20" height="20" rx="3" fill="#5b9cf6"/>
  <rect x="252" y="348" width="20" height="20" rx="3" fill="#5b9cf6"/>
  <rect x="288" y="348" width="20" height="20" rx="3" fill="#5b9cf6"/>
  <rect x="348" y="348" width="64" height="64" rx="8" fill="#5b9cf6"/>
  <circle cx="256" cy="256" r="48" fill="none" stroke="#a78bfa" stroke-width="6"/>
  <circle cx="256" cy="256" r="22" fill="#a78bfa" opacity="0.3"/>
  <circle cx="256" cy="256" r="8" fill="#a78bfa"/>
</svg>
